<?xml version="1.0" encoding="utf-8"?>
<!-- Generator: Adobe Illustrator 16.0.0, SVG Export Plug-In . SVG Version: 6.00 Build 0)  -->
<!DOCTYPE svg PUBLIC "-//W3C//DTD SVG 1.1//EN" "http://www.w3.org/Graphics/SVG/1.1/DTD/svg11.dtd">
<svg version="1.1" id="Layer_1" xmlns="http://www.w3.org/2000/svg" xmlns:xlink="http://www.w3.org/1999/xlink" x="0px" y="0px"
	 width="612px" height="792px" viewBox="0 0 612 792" enable-background="new 0 0 612 792" xml:space="preserve">
<text transform="matrix(1 0 0 1 26.127 96.9717)" fill="#231F20" font-family="'MyriadPro-Regular'" font-size="12">Project</text>
<rect x="13.424" y="77" fill="none" stroke="#231F20" stroke-miterlimit="10" width="74.675" height="29.832"/>
<text transform="matrix(1 0 0 1 31.7607 136.4087)"><tspan x="0" y="0" fill="#231F20" font-family="'MyriadPro-Regular'" font-size="12">Proposer:</tspan><tspan x="0" y="28.8" fill="#231F20" font-family="'MyriadPro-Regular'" font-size="12">Proposed cost:</tspan><tspan x="0" y="57.6" fill="#231F20" font-family="'MyriadPro-Regular'" font-size="12">        Actual cost:</tspan></text>
<text transform="matrix(1 0 0 1 305.9995 116.6899)" fill="#231F20" font-family="'MyriadPro-Regular'" font-size="12">Description:</text>
<text transform="matrix(1 0 0 1 31.7607 223.7324)" fill="#231F20" font-family="'MyriadPro-Regular'" font-size="12">Tokens Needed:</text>
<text transform="matrix(1 0 0 1 261.1973 223.7324)" fill="#231F20" font-family="'MyriadPro-Regular'" font-size="12">Rep Needed:</text>
<line fill="none" stroke="#231F20" stroke-miterlimit="10" x1="88.099" y1="142.042" x2="290.916" y2="142.042"/>
<line fill="none" stroke="#231F20" stroke-miterlimit="10" x1="112.042" y1="167.395" x2="290.916" y2="167.395"/>
<line fill="none" stroke="#231F20" stroke-miterlimit="10" x1="119.085" y1="192.747" x2="290.916" y2="192.747"/>
<line fill="none" stroke="#231F20" stroke-miterlimit="10" x1="119.085" y1="223.732" x2="247.254" y2="223.732"/>
<line fill="none" stroke="#231F20" stroke-miterlimit="10" x1="337.395" y1="223.732" x2="474.015" y2="223.732"/>
<text transform="matrix(1 0 0 1 494.2813 223.7324)" fill="#231F20" font-family="'MyriadPro-Regular'" font-size="12">User Weighting</text>
<line fill="none" stroke="#231F20" stroke-miterlimit="10" x1="328.944" y1="142.042" x2="575.423" y2="142.042"/>
<line fill="none" stroke="#231F20" stroke-miterlimit="10" x1="328.944" y1="167.395" x2="575.423" y2="167.395"/>
<line fill="none" stroke="#231F20" stroke-miterlimit="10" x1="328.944" y1="192.746" x2="575.423" y2="192.746"/>
<line fill="none" stroke="#231F20" stroke-miterlimit="10" x1="381.493" y1="116.69" x2="575.423" y2="116.69"/>
<rect x="111.169" y="249.084" fill="none" stroke="#231F20" stroke-miterlimit="10" width="144" height="144"/>
<rect x="333.705" y="249.084" fill="none" stroke="#231F20" stroke-miterlimit="10" width="144" height="144"/>
<line fill="none" stroke="#231F20" stroke-miterlimit="10" x1="49.874" y1="283.26" x2="95.761" y2="283.26"/>
<line fill="none" stroke="#231F20" stroke-miterlimit="10" x1="49.874" y1="308.612" x2="95.761" y2="308.612"/>
<line fill="none" stroke="#231F20" stroke-miterlimit="10" x1="49.874" y1="333.964" x2="95.761" y2="333.964"/>
<line fill="none" stroke="#231F20" stroke-miterlimit="10" x1="49.874" y1="257.908" x2="95.761" y2="257.908"/>
<line fill="none" stroke="#231F20" stroke-miterlimit="10" x1="49.874" y1="384.261" x2="95.761" y2="384.261"/>
<line fill="none" stroke="#231F20" stroke-miterlimit="10" x1="49.874" y1="358.908" x2="95.761" y2="358.908"/>
<line fill="none" stroke="#231F20" stroke-miterlimit="10" x1="273.162" y1="283.26" x2="315.514" y2="283.26"/>
<line fill="none" stroke="#231F20" stroke-miterlimit="10" x1="273.162" y1="308.612" x2="315.514" y2="308.612"/>
<line fill="none" stroke="#231F20" stroke-miterlimit="10" x1="273.162" y1="333.964" x2="315.514" y2="333.964"/>
<line fill="none" stroke="#231F20" stroke-miterlimit="10" x1="273.162" y1="257.908" x2="315.514" y2="257.908"/>
<line fill="none" stroke="#231F20" stroke-miterlimit="10" x1="273.162" y1="384.261" x2="315.514" y2="384.261"/>
<line fill="none" stroke="#231F20" stroke-miterlimit="10" x1="273.162" y1="358.908" x2="315.514" y2="358.908"/>
<line fill="none" stroke="#231F20" stroke-miterlimit="10" x1="501.902" y1="283.26" x2="563.973" y2="283.26"/>
<line fill="none" stroke="#231F20" stroke-miterlimit="10" x1="501.902" y1="308.612" x2="563.973" y2="308.612"/>
<line fill="none" stroke="#231F20" stroke-miterlimit="10" x1="501.902" y1="333.964" x2="563.973" y2="333.964"/>
<line fill="none" stroke="#231F20" stroke-miterlimit="10" x1="501.902" y1="257.908" x2="563.973" y2="257.908"/>
<line fill="none" stroke="#231F20" stroke-miterlimit="10" x1="501.902" y1="384.261" x2="563.973" y2="384.261"/>
<line fill="none" stroke="#231F20" stroke-miterlimit="10" x1="501.902" y1="358.908" x2="563.973" y2="358.908"/>
<text transform="matrix(1 0 0 1 37.3945 259.9077)"><tspan x="0" y="0" fill="#231F20" font-family="'MyriadPro-Regular'" font-size="12">1</tspan><tspan x="0" y="25" fill="#231F20" font-family="'MyriadPro-Regular'" font-size="12">2</tspan><tspan x="0" y="50" fill="#231F20" font-family="'MyriadPro-Regular'" font-size="12">3</tspan><tspan x="0" y="75" fill="#231F20" font-family="'MyriadPro-Regular'" font-size="12">4</tspan><tspan x="0" y="100" fill="#231F20" font-family="'MyriadPro-Regular'" font-size="12">5</tspan><tspan x="0" y="125" fill="#231F20" font-family="'MyriadPro-Regular'" font-size="12">6</tspan></text>
<g>
	<circle fill="#231F20" cx="27.7" cy="378" r="3.573"/>
	<line fill="none" stroke="#231F20" stroke-miterlimit="10" x1="27.7" y1="381.573" x2="27.7" y2="387.037"/>
	<line fill="none" stroke="#231F20" stroke-miterlimit="10" x1="24.127" y1="384.306" x2="31.272" y2="384.306"/>
	<line fill="none" stroke="#231F20" stroke-miterlimit="10" x1="27.7" y1="387.037" x2="24.127" y2="390.82"/>
	<line fill="none" stroke="#231F20" stroke-miterlimit="10" x1="27.7" y1="387.037" x2="31.272" y2="390.82"/>
</g>
<g>
	<circle fill="#231F20" cx="27.7" cy="352.284" r="3.573"/>
	<line fill="none" stroke="#231F20" stroke-miterlimit="10" x1="27.7" y1="355.857" x2="27.7" y2="361.321"/>
	<line fill="none" stroke="#231F20" stroke-miterlimit="10" x1="24.127" y1="358.59" x2="31.272" y2="358.59"/>
	<line fill="none" stroke="#231F20" stroke-miterlimit="10" x1="27.7" y1="361.321" x2="24.127" y2="365.104"/>
	<line fill="none" stroke="#231F20" stroke-miterlimit="10" x1="27.7" y1="361.321" x2="31.272" y2="365.104"/>
</g>
<g>
	<circle fill="#231F20" cx="27.7" cy="326.657" r="3.573"/>
	<line fill="none" stroke="#231F20" stroke-miterlimit="10" x1="27.7" y1="330.23" x2="27.7" y2="335.694"/>
	<line fill="none" stroke="#231F20" stroke-miterlimit="10" x1="24.127" y1="332.962" x2="31.272" y2="332.962"/>
	<line fill="none" stroke="#231F20" stroke-miterlimit="10" x1="27.7" y1="335.694" x2="24.127" y2="339.477"/>
	<line fill="none" stroke="#231F20" stroke-miterlimit="10" x1="27.7" y1="335.694" x2="31.272" y2="339.477"/>
</g>
<g>
	<circle fill="#231F20" cx="27.7" cy="300.988" r="3.573"/>
	<line fill="none" stroke="#231F20" stroke-miterlimit="10" x1="27.7" y1="304.562" x2="27.7" y2="310.025"/>
	<line fill="none" stroke="#231F20" stroke-miterlimit="10" x1="24.127" y1="307.294" x2="31.272" y2="307.294"/>
	<line fill="none" stroke="#231F20" stroke-miterlimit="10" x1="27.7" y1="310.025" x2="24.127" y2="313.809"/>
	<line fill="none" stroke="#231F20" stroke-miterlimit="10" x1="27.7" y1="310.025" x2="31.272" y2="313.809"/>
</g>
<g>
	<circle fill="#231F20" cx="27.7" cy="277.636" r="3.573"/>
	<line fill="none" stroke="#231F20" stroke-miterlimit="10" x1="27.7" y1="281.209" x2="27.7" y2="286.673"/>
	<line fill="none" stroke="#231F20" stroke-miterlimit="10" x1="24.127" y1="283.942" x2="31.272" y2="283.942"/>
	<line fill="none" stroke="#231F20" stroke-miterlimit="10" x1="27.7" y1="286.673" x2="24.127" y2="290.457"/>
	<line fill="none" stroke="#231F20" stroke-miterlimit="10" x1="27.7" y1="286.673" x2="31.272" y2="290.457"/>
</g>
<g>
	<circle fill="#231F20" cx="27.7" cy="251.606" r="3.573"/>
	<line fill="none" stroke="#231F20" stroke-miterlimit="10" x1="27.7" y1="255.179" x2="27.7" y2="260.643"/>
	<line fill="none" stroke="#231F20" stroke-miterlimit="10" x1="24.127" y1="257.912" x2="31.272" y2="257.912"/>
	<line fill="none" stroke="#231F20" stroke-miterlimit="10" x1="27.7" y1="260.643" x2="24.127" y2="264.426"/>
	<line fill="none" stroke="#231F20" stroke-miterlimit="10" x1="27.7" y1="260.643" x2="31.272" y2="264.426"/>
</g>
<rect x="24.127" y="119.69" fill="none" stroke="#32BA24" stroke-miterlimit="10" width="63.972" height="25.353"/>
<rect x="24.127" y="148.042" fill="none" stroke="#32BA24" stroke-miterlimit="10" width="87.042" height="25.353"/>
<rect x="297.5" y="98.972" fill="none" stroke="#32BA24" stroke-miterlimit="10" width="75.5" height="25.353"/>
<rect x="24.127" y="205" fill="none" stroke="#F94F0D" stroke-miterlimit="10" width="94.958" height="25.353"/>
<rect x="255.169" y="205" fill="none" stroke="#F94F0D" stroke-miterlimit="10" width="78.536" height="25.353"/>
<rect x="489.459" y="205" fill="none" stroke="#F94F0D" stroke-miterlimit="10" width="88.964" height="25.353"/>
<rect x="45.62" y="176.07" fill="none" stroke="#F94F0D" stroke-miterlimit="10" width="73.465" height="25.353"/>
<rect x="138" y="310.585" fill="none" width="89" height="54"/>
<text transform="matrix(1 0 0 1 138 319.105)" font-family="'MyriadPro-Regular'" font-size="12">Place tokens here</text>
<rect x="369.184" y="308.694" fill="none" width="89" height="54"/>
<text transform="matrix(1 0 0 1 369.1836 317.2134)" font-family="'MyriadPro-Regular'" font-size="12">Place rep here</text>
<rect x="13.424" y="77" fill="none" stroke="#000000" stroke-miterlimit="10" width="587.576" height="702"/>
<rect x="29.898" y="27" fill="none" stroke="#32BA24" stroke-miterlimit="10" width="75.5" height="25.353"/>
<rect x="297.5" y="27" fill="none" stroke="#F94F0D" stroke-miterlimit="10" width="94.958" height="25.353"/>
<text transform="matrix(1 0 0 1 403.7051 42.6763)" fill="#F94F0D" font-family="'MyriadPro-Regular'" font-size="12">Computer fills this out</text>
<text transform="matrix(1 0 0 1 119.085 40.6763)" fill="#32BA24" font-family="'MyriadPro-Regular'" font-size="12">You fill this out</text>
</svg>
