<?xml version="1.0" encoding="utf-8"?>
<!-- Generator: Adobe Illustrator 16.0.0, SVG Export Plug-In . SVG Version: 6.00 Build 0)  -->
<!DOCTYPE svg PUBLIC "-//W3C//DTD SVG 1.1//EN" "http://www.w3.org/Graphics/SVG/1.1/DTD/svg11.dtd">
<svg version="1.1" id="Layer_1" xmlns="http://www.w3.org/2000/svg" xmlns:xlink="http://www.w3.org/1999/xlink" x="0px" y="0px"
	 width="612px" height="792px" viewBox="0 0 612 792" enable-background="new 0 0 612 792" xml:space="preserve">
<text transform="matrix(0.879 0 0 1 46.1758 87.874)" fill="#231F20" font-family="'MyriadPro-Regular'" font-size="12">Description:</text>
<line fill="none" stroke="#231F20" stroke-miterlimit="10" x1="66.344" y1="113.227" x2="418.585" y2="113.227"/>
<line fill="none" stroke="#231F20" stroke-miterlimit="10" x1="141.442" y1="87.874" x2="418.585" y2="87.874"/>
<rect x="119.951" y="227.056" fill="none" stroke="#231F20" stroke-miterlimit="10" width="144" height="144"/>
<rect x="357.613" y="227.056" fill="none" stroke="#231F20" stroke-miterlimit="10" width="144" height="144"/>
<line fill="none" stroke="#231F20" stroke-miterlimit="10" x1="58.656" y1="261.231" x2="104.542" y2="261.231"/>
<line fill="none" stroke="#231F20" stroke-miterlimit="10" x1="58.656" y1="286.583" x2="104.542" y2="286.583"/>
<line fill="none" stroke="#231F20" stroke-miterlimit="10" x1="58.656" y1="311.935" x2="104.542" y2="311.935"/>
<line fill="none" stroke="#231F20" stroke-miterlimit="10" x1="58.656" y1="235.879" x2="104.542" y2="235.879"/>
<line fill="none" stroke="#231F20" stroke-miterlimit="10" x1="58.656" y1="362.231" x2="104.542" y2="362.231"/>
<line fill="none" stroke="#231F20" stroke-miterlimit="10" x1="58.656" y1="336.88" x2="104.542" y2="336.88"/>
<line fill="none" stroke="#231F20" stroke-miterlimit="10" x1="297.07" y1="261.231" x2="339.422" y2="261.231"/>
<line fill="none" stroke="#231F20" stroke-miterlimit="10" x1="297.07" y1="286.583" x2="339.422" y2="286.583"/>
<line fill="none" stroke="#231F20" stroke-miterlimit="10" x1="297.07" y1="311.935" x2="339.422" y2="311.935"/>
<line fill="none" stroke="#231F20" stroke-miterlimit="10" x1="297.07" y1="235.879" x2="339.422" y2="235.879"/>
<line fill="none" stroke="#231F20" stroke-miterlimit="10" x1="297.07" y1="362.231" x2="339.422" y2="362.231"/>
<line fill="none" stroke="#231F20" stroke-miterlimit="10" x1="297.07" y1="336.88" x2="339.422" y2="336.88"/>
<text transform="matrix(1 0 0 1 46.1758 237.8789)"><tspan x="0" y="0" fill="#231F20" font-family="'MyriadPro-Regular'" font-size="12">1</tspan><tspan x="0" y="25" fill="#231F20" font-family="'MyriadPro-Regular'" font-size="12">2</tspan><tspan x="0" y="50" fill="#231F20" font-family="'MyriadPro-Regular'" font-size="12">3</tspan><tspan x="0" y="75" fill="#231F20" font-family="'MyriadPro-Regular'" font-size="12">4</tspan><tspan x="0" y="100" fill="#231F20" font-family="'MyriadPro-Regular'" font-size="12">5</tspan><tspan x="0" y="125" fill="#231F20" font-family="'MyriadPro-Regular'" font-size="12">6</tspan></text>
<rect x="38.704" y="70.156" fill="none" stroke="#32BA24" stroke-miterlimit="10" width="66.365" height="25.353"/>
<rect x="146.781" y="288.557" fill="none" width="89" height="54"/>
<text transform="matrix(1 0 0 1 146.7813 297.0762)"><tspan x="0" y="0" font-family="'MyriadPro-Regular'" font-size="12">Place NO tokens </tspan><tspan x="0" y="14.4" font-family="'MyriadPro-Regular'" font-size="12">here</tspan></text>
<rect x="393.092" y="286.665" fill="none" width="89" height="54"/>
<text transform="matrix(1 0 0 1 393.0918 295.1846)"><tspan x="0" y="0" font-family="'MyriadPro-Regular'" font-size="12">Place YES tokens </tspan><tspan x="0" y="14.4" font-family="'MyriadPro-Regular'" font-size="12">here</tspan></text>
<rect x="26" y="27.353" fill="none" stroke="#000000" stroke-miterlimit="10" width="561" height="361.238"/>
<text transform="matrix(1 0 0 1 38.7036 47.3252)" fill="#231F20" font-family="'MyriadPro-Regular'" font-size="12">Task</text>
<rect x="26" y="27.353" fill="none" stroke="#231F20" stroke-miterlimit="10" width="74.676" height="29.832"/>
<text transform="matrix(1 0 0 1 282 236.8789)"><tspan x="0" y="0" fill="#231F20" font-family="'MyriadPro-Regular'" font-size="12">1</tspan><tspan x="0" y="25" fill="#231F20" font-family="'MyriadPro-Regular'" font-size="12">2</tspan><tspan x="0" y="50" fill="#231F20" font-family="'MyriadPro-Regular'" font-size="12">3</tspan><tspan x="0" y="75" fill="#231F20" font-family="'MyriadPro-Regular'" font-size="12">4</tspan><tspan x="0" y="100" fill="#231F20" font-family="'MyriadPro-Regular'" font-size="12">5</tspan><tspan x="0" y="125" fill="#231F20" font-family="'MyriadPro-Regular'" font-size="12">6</tspan></text>
<rect x="429.613" y="41.227" fill="none" stroke="#231F20" stroke-miterlimit="10" width="144" height="144"/>
<rect x="465.092" y="100.836" fill="none" width="89" height="54"/>
<text transform="matrix(1 0 0 1 465.0918 109.3555)" font-family="'MyriadPro-Regular'" font-size="12">Place rep here</text>
<text transform="matrix(1 0 0 1 53.8101 146.5542)"><tspan x="0" y="0" fill="#231F20" font-family="'MyriadPro-Regular'" font-size="12">Cost to Claim:</tspan><tspan x="68.795" y="0" fill="#231F20" font-family="'MyriadPro-Regular'" font-size="12">	</tspan><tspan x="72" y="0" fill="#231F20" font-family="'MyriadPro-Regular'" font-size="12">                                             reputation</tspan><tspan x="0" y="28" fill="#231F20" font-family="'MyriadPro-Regular'" font-size="12">Claimer:</tspan><tspan x="0" y="56" fill="#231F20" font-family="'MyriadPro-Regular'" font-size="12">Cost to Validate:                                           tokens</tspan><tspan x="0" y="84" fill="#231F20" font-family="'MyriadPro-Regular'" font-size="12">    </tspan></text>
<line fill="none" stroke="#231F20" stroke-miterlimit="10" x1="135.07" y1="148.188" x2="233.38" y2="148.188"/>
<line fill="none" stroke="#231F20" stroke-miterlimit="10" x1="110.123" y1="175.54" x2="312.965" y2="175.54"/>
<line fill="none" stroke="#231F20" stroke-miterlimit="10" x1="141.135" y1="202.893" x2="233.38" y2="202.893"/>
<rect x="46.176" y="127.836" fill="none" stroke="#F94F0D" stroke-miterlimit="10" width="87.043" height="25.352"/>
<rect x="46.176" y="156.188" fill="none" stroke="#32BA24" stroke-miterlimit="10" width="63.947" height="25.354"/>
<rect x="46.176" y="184.216" fill="none" stroke="#F94F0D" stroke-miterlimit="10" width="94.959" height="25.353"/>
<text transform="matrix(0.879 0 0 1 46.1763 467.4004)" fill="#231F20" font-family="'MyriadPro-Regular'" font-size="12">Description:</text>
<line fill="none" stroke="#231F20" stroke-miterlimit="10" x1="66.345" y1="492.752" x2="418.586" y2="492.752"/>
<line fill="none" stroke="#231F20" stroke-miterlimit="10" x1="141.442" y1="467.4" x2="418.586" y2="467.4"/>
<rect x="119.951" y="606.582" fill="none" stroke="#231F20" stroke-miterlimit="10" width="144" height="143.998"/>
<rect x="357.613" y="606.582" fill="none" stroke="#231F20" stroke-miterlimit="10" width="144" height="143.998"/>
<line fill="none" stroke="#231F20" stroke-miterlimit="10" x1="58.656" y1="640.758" x2="104.543" y2="640.758"/>
<line fill="none" stroke="#231F20" stroke-miterlimit="10" x1="58.656" y1="666.109" x2="104.543" y2="666.109"/>
<line fill="none" stroke="#231F20" stroke-miterlimit="10" x1="58.656" y1="691.461" x2="104.543" y2="691.461"/>
<line fill="none" stroke="#231F20" stroke-miterlimit="10" x1="58.656" y1="615.404" x2="104.543" y2="615.404"/>
<line fill="none" stroke="#231F20" stroke-miterlimit="10" x1="58.656" y1="741.756" x2="104.543" y2="741.756"/>
<line fill="none" stroke="#231F20" stroke-miterlimit="10" x1="58.656" y1="716.406" x2="104.543" y2="716.406"/>
<line fill="none" stroke="#231F20" stroke-miterlimit="10" x1="297.071" y1="640.758" x2="339.422" y2="640.758"/>
<line fill="none" stroke="#231F20" stroke-miterlimit="10" x1="297.071" y1="666.109" x2="339.422" y2="666.109"/>
<line fill="none" stroke="#231F20" stroke-miterlimit="10" x1="297.071" y1="691.461" x2="339.422" y2="691.461"/>
<line fill="none" stroke="#231F20" stroke-miterlimit="10" x1="297.071" y1="615.404" x2="339.422" y2="615.404"/>
<line fill="none" stroke="#231F20" stroke-miterlimit="10" x1="297.071" y1="741.756" x2="339.422" y2="741.756"/>
<line fill="none" stroke="#231F20" stroke-miterlimit="10" x1="297.071" y1="716.406" x2="339.422" y2="716.406"/>
<text transform="matrix(1 0 0 1 46.1763 617.4043)"><tspan x="0" y="0" fill="#231F20" font-family="'MyriadPro-Regular'" font-size="12">1</tspan><tspan x="0" y="25" fill="#231F20" font-family="'MyriadPro-Regular'" font-size="12">2</tspan><tspan x="0" y="50" fill="#231F20" font-family="'MyriadPro-Regular'" font-size="12">3</tspan><tspan x="0" y="75" fill="#231F20" font-family="'MyriadPro-Regular'" font-size="12">4</tspan><tspan x="0" y="100" fill="#231F20" font-family="'MyriadPro-Regular'" font-size="12">5</tspan><tspan x="0" y="125" fill="#231F20" font-family="'MyriadPro-Regular'" font-size="12">6</tspan></text>
<rect x="38.704" y="449.682" fill="none" stroke="#32BA24" stroke-miterlimit="10" width="66.365" height="25.353"/>
<rect x="146.781" y="668.082" fill="none" width="89" height="54"/>
<text transform="matrix(1 0 0 1 146.7817 676.6016)"><tspan x="0" y="0" font-family="'MyriadPro-Regular'" font-size="12">Place NO tokens </tspan><tspan x="0" y="14.4" font-family="'MyriadPro-Regular'" font-size="12">here</tspan></text>
<rect x="393.092" y="666.191" fill="none" width="89" height="54"/>
<text transform="matrix(1 0 0 1 393.0928 674.7109)"><tspan x="0" y="0" font-family="'MyriadPro-Regular'" font-size="12">Place YES tokens </tspan><tspan x="0" y="14.4" font-family="'MyriadPro-Regular'" font-size="12">here</tspan></text>
<rect x="26" y="406.879" fill="none" stroke="#000000" stroke-miterlimit="10" width="561" height="361.238"/>
<text transform="matrix(1 0 0 1 38.7041 426.8516)" fill="#231F20" font-family="'MyriadPro-Regular'" font-size="12">Task</text>
<rect x="26" y="406.879" fill="none" stroke="#231F20" stroke-miterlimit="10" width="74.676" height="29.832"/>
<text transform="matrix(1 0 0 1 282.0005 616.4043)"><tspan x="0" y="0" fill="#231F20" font-family="'MyriadPro-Regular'" font-size="12">1</tspan><tspan x="0" y="25" fill="#231F20" font-family="'MyriadPro-Regular'" font-size="12">2</tspan><tspan x="0" y="50" fill="#231F20" font-family="'MyriadPro-Regular'" font-size="12">3</tspan><tspan x="0" y="75" fill="#231F20" font-family="'MyriadPro-Regular'" font-size="12">4</tspan><tspan x="0" y="100" fill="#231F20" font-family="'MyriadPro-Regular'" font-size="12">5</tspan><tspan x="0" y="125" fill="#231F20" font-family="'MyriadPro-Regular'" font-size="12">6</tspan></text>
<rect x="429.613" y="420.752" fill="none" stroke="#231F20" stroke-miterlimit="10" width="144" height="144"/>
<rect x="465.092" y="480.361" fill="none" width="89" height="54"/>
<text transform="matrix(1 0 0 1 465.0928 488.8809)" font-family="'MyriadPro-Regular'" font-size="12">Place rep here</text>
<text transform="matrix(1 0 0 1 53.8105 526.0801)"><tspan x="0" y="0" fill="#231F20" font-family="'MyriadPro-Regular'" font-size="12">Cost to Claim:</tspan><tspan x="68.795" y="0" fill="#231F20" font-family="'MyriadPro-Regular'" font-size="12">	</tspan><tspan x="72" y="0" fill="#231F20" font-family="'MyriadPro-Regular'" font-size="12">                                             reputation</tspan><tspan x="0" y="28" fill="#231F20" font-family="'MyriadPro-Regular'" font-size="12">Claimer:</tspan><tspan x="0" y="56" fill="#231F20" font-family="'MyriadPro-Regular'" font-size="12">Cost to Validate:                                           tokens</tspan><tspan x="0" y="84" fill="#231F20" font-family="'MyriadPro-Regular'" font-size="12">    </tspan></text>
<line fill="none" stroke="#231F20" stroke-miterlimit="10" x1="135.071" y1="527.713" x2="233.381" y2="527.713"/>
<line fill="none" stroke="#231F20" stroke-miterlimit="10" x1="110.123" y1="555.066" x2="312.965" y2="555.066"/>
<line fill="none" stroke="#231F20" stroke-miterlimit="10" x1="141.135" y1="582.418" x2="233.381" y2="582.418"/>
<rect x="46.176" y="507.361" fill="none" stroke="#F94F0D" stroke-miterlimit="10" width="87.043" height="25.352"/>
<rect x="46.176" y="535.713" fill="none" stroke="#32BA24" stroke-miterlimit="10" width="63.947" height="25.354"/>
<rect x="46.176" y="563.742" fill="none" stroke="#F94F0D" stroke-miterlimit="10" width="94.959" height="25.352"/>
</svg>
